<svg width="188" height="78" viewBox="0 0 188 78" fill="none" xmlns="http://www.w3.org/2000/svg">
<path fill-rule="evenodd" clip-rule="evenodd" d="M0.53125 0.972364C6.03791 -0.832674 10.1027 -0.0862541 13.1082 2.8922C16.3775 6.13181 22.5553 14.0606 25.2569 18.3472L21.6454 25.5009C14.1779 40.2915 16.132 -0.767041 0.53125 0.972364Z" fill="#F6CAC9"/>
<path fill-rule="evenodd" clip-rule="evenodd" d="M0.486328 1.09885C4.73558 -0.637208 8.11057 0.259353 10.6525 2.28154C13.7974 4.7834 22.3146 18.0608 24.0869 21.5015L21.2009 27.5378C21.2009 27.5378 14.169 11.7489 11.1658 5.49549C9.1559 1.31025 5.3823 0.552853 0.486328 1.09885Z" fill="#F6CAC9"/>
<path fill-rule="evenodd" clip-rule="evenodd" d="M0.121094 0.977355C2.71965 0.126527 4.94731 0.292628 6.70104 0.968692C10.0044 2.24283 11.8608 5.67823 13.9221 9.64298L22.5247 24.2334L19.7237 28.6985C19.7237 28.6985 13.1777 12.7886 10.1742 6.53472C8.16427 2.34921 5.01706 0.4317 0.121094 0.977355Z" fill="#A2B8DF"/>
<path fill-rule="evenodd" clip-rule="evenodd" d="M140.394 10.7613C142.233 10.7613 143.785 10.9 145.051 11.1776C146.318 11.455 147.28 11.9233 147.939 12.5827C148.252 12.8949 148.504 13.2418 148.694 13.6233C148.885 14.0053 149.016 14.4562 149.084 14.9765C149.154 15.4968 149.197 16.1128 149.215 16.824C149.232 17.5354 149.24 18.3765 149.24 19.3482H148.2C148.061 17.1274 147.359 15.4882 146.092 14.4301C144.826 13.3719 143.273 12.8428 141.435 12.8428C140.116 12.8428 138.989 13.1204 138.052 13.6754C137.115 14.2308 136.334 14.9851 135.71 15.9394C135.085 16.8933 134.626 18.021 134.331 19.3222C134.036 20.6229 133.889 22.0195 133.889 23.5113C133.889 25.0032 134.036 26.3997 134.331 27.7009C134.626 29.0016 135.085 30.1293 135.71 31.0836C136.334 32.0375 137.115 32.7923 138.052 33.3473C138.989 33.9023 140.116 34.1801 141.435 34.1801C143.273 34.1801 144.765 33.8156 145.91 33.0871C147.055 32.3587 148.078 31.3351 148.981 30.0166L150.021 30.7974C148.841 32.775 147.463 34.1801 145.884 35.0126C144.306 35.8451 142.475 36.2617 140.394 36.2617C138.45 36.2617 136.759 35.9232 135.319 35.2468C133.88 34.5703 132.691 33.6594 131.755 32.5147C130.818 31.3697 130.115 30.0252 129.647 28.4814C129.178 26.9374 128.944 25.2807 128.944 23.5113C128.944 21.7419 129.178 20.0852 129.647 18.5413C130.115 16.9974 130.818 15.6529 131.755 14.5082C132.691 13.3632 133.88 12.4523 135.319 11.7759C136.759 11.0995 138.45 10.7613 140.394 10.7613Z" fill="#A2B8DF"/>
<path fill-rule="evenodd" clip-rule="evenodd" d="M126.583 24.3502H110.813C110.813 25.7727 110.97 27.0908 111.282 28.3052C111.595 29.5193 112.055 30.5689 112.662 31.4538C113.269 32.3384 114.005 33.0238 114.873 33.5094C115.74 33.995 116.729 34.2379 117.839 34.2379C119.539 34.2379 120.953 33.8736 122.081 33.1452C123.208 32.4163 124.223 31.3931 125.125 30.0747L126.166 30.8551C124.986 32.833 123.625 34.2379 122.081 35.0707C120.537 35.9031 118.776 36.3194 116.799 36.3194C114.96 36.3194 113.364 35.9812 112.01 35.3048C110.657 34.6284 109.522 33.7175 108.602 32.5728C107.683 31.4278 106.997 30.0833 106.546 28.5394C106.095 26.9954 105.87 25.3388 105.87 23.5694C105.87 21.8 106.104 20.1433 106.573 18.5993C107.041 17.0555 107.726 15.711 108.628 14.5663C109.53 13.4212 110.623 12.5103 111.906 11.8339C113.19 11.1575 114.647 10.819 116.278 10.819C119.817 10.819 122.437 11.8079 124.137 13.7855C125.836 15.763 126.687 18.5907 126.687 22.2683L126.583 24.3502ZM121.742 22.2105C121.742 19.1921 121.291 16.8763 120.389 15.263C119.487 13.6497 118.117 12.8432 116.278 12.8432C115.48 12.8432 114.751 13.0773 114.092 13.5457C113.433 14.014 112.861 14.6646 112.375 15.4972C111.889 16.33 111.507 17.3189 111.23 18.4636C110.952 19.6086 110.813 20.8577 110.813 22.2105H121.742Z" fill="#A2B8DF"/>
<path fill-rule="evenodd" clip-rule="evenodd" d="M93.6936 13.3635H90.0508V11.2819H93.6936V6.59809L96.2962 3.47559H98.3778V11.2819H104.622V13.3635H98.3778V29.4963C98.3778 32.6188 99.5922 34.1801 102.021 34.1801C102.923 34.1801 103.668 34.076 104.258 33.8679C104.848 33.6598 105.403 33.417 105.924 33.1395L106.444 34.1801C106.167 34.3886 105.845 34.6141 105.481 34.8569C105.117 35.0997 104.674 35.3251 104.154 35.5333C103.634 35.7414 103.027 35.9148 102.333 36.0539C101.638 36.1923 100.841 36.2617 99.9391 36.2617C98.1 36.2617 96.5998 35.7241 95.4373 34.6487C94.2753 33.5731 93.6936 31.8557 93.6936 29.4963V13.3635Z" fill="#A2B8DF"/>
<path fill-rule="evenodd" clip-rule="evenodd" d="M87.2753 35.7411H84.673L82.8516 33.6595H82.5915C81.9324 34.3185 81.0302 34.9173 79.8854 35.4549C78.7404 35.9926 77.3873 36.2615 75.826 36.2615C74.7157 36.2615 73.6317 36.1316 72.5734 35.8712C71.515 35.611 70.5698 35.1254 69.7369 34.4143C68.9045 33.7029 68.2364 32.7399 67.7335 31.5259C67.2304 30.3115 66.9786 28.7675 66.9786 26.8941V17.5264C66.9786 15.9651 66.7618 14.7074 66.3282 13.7535C65.8946 12.7996 64.897 12.3223 63.3358 12.3223H62.8154V11.2817H66.9786C67.8808 11.2817 68.6353 11.3597 69.2427 11.5158C69.8497 11.6719 70.3357 11.9841 70.6999 12.4523C71.0641 12.9206 71.3156 13.5627 71.4544 14.3782C71.5931 15.1933 71.6625 16.2429 71.6625 17.5264V26.8941C71.6625 28.2125 71.8276 29.3142 72.1568 30.1988C72.4867 31.0833 72.9203 31.8034 73.4579 32.3584C73.9959 32.9137 74.603 33.3126 75.2794 33.5555C75.9561 33.7983 76.6585 33.9197 77.3873 33.9197C78.4279 33.9197 79.3908 33.6421 80.2757 33.0871C81.1603 32.5321 81.9324 31.8901 82.5915 31.1613V11.2817H87.2753V35.7411Z" fill="#A2B8DF"/>
<path fill-rule="evenodd" clip-rule="evenodd" d="M62.4515 29.4963C62.4515 30.6063 62.2172 31.5779 61.749 32.4103C61.2804 33.2432 60.6474 33.9456 59.8492 34.5183C59.0513 35.0907 58.0884 35.5243 56.9608 35.8194C55.8334 36.1143 54.6277 36.2617 53.3439 36.2617C51.2626 36.2617 49.5626 36.0796 48.2437 35.7154C46.9257 35.3508 45.9367 34.8392 45.2776 34.1801C44.6186 33.5207 44.2367 32.775 44.1326 31.9421C44.0286 31.1096 43.9766 30.0339 43.9766 28.7155H45.0175C45.295 30.4155 46.0235 31.7513 47.2031 32.7229C48.3829 33.6942 50.0829 34.1801 52.3032 34.1801C54.2808 34.1801 55.7293 33.8329 56.6486 33.1392C57.5681 32.4451 58.0277 31.5779 58.0277 30.5373C58.0277 29.4963 57.6375 28.6201 56.857 27.909C56.0762 27.1979 54.9055 26.5125 53.3439 25.8534L50.2217 24.5523C48.2437 23.7541 46.7085 22.8089 45.6158 21.7159C44.5228 20.6229 43.9766 19.2268 43.9766 17.5267C43.9766 16.4164 44.1933 15.4447 44.6269 14.6123C45.0608 13.7795 45.6592 13.077 46.4223 12.5046C47.1858 11.932 48.0877 11.4984 49.1286 11.2036C50.1696 10.9083 51.3143 10.7613 52.5634 10.7613C54.5409 10.7613 56.1716 10.9434 57.4554 11.3076C58.7392 11.6718 59.7104 12.1839 60.3698 12.8428C61.0289 13.5019 61.4104 14.2481 61.5145 15.0805C61.6186 15.9131 61.671 16.9887 61.671 18.3072H60.6299C60.3525 16.6072 59.6324 15.2714 58.4703 14.3001C57.308 13.3285 55.6859 12.8428 53.604 12.8428C51.9044 12.8428 50.6119 13.1897 49.7271 13.8839C48.8425 14.5776 48.4002 15.4447 48.4002 16.4858C48.4002 17.3877 48.7644 18.2118 49.4929 18.9579C50.2217 19.7037 51.2449 20.3541 52.5634 20.9091L55.6859 22.2102C57.9063 23.1124 59.589 24.1014 60.734 25.1766C61.879 26.2523 62.4515 27.6922 62.4515 29.4963Z" fill="#A2B8DF"/>
<path fill-rule="evenodd" clip-rule="evenodd" d="M40.5073 35.7411H35.8235V17.5264C35.8235 15.9651 35.6066 14.7074 35.173 13.7535C34.7392 12.7996 33.7419 12.3223 32.1806 12.3223H31.1396V11.2817H35.8235C36.7257 11.2817 37.4801 11.3597 38.0875 11.5158C38.6946 11.6719 39.1802 11.9841 39.5444 12.4523C39.9089 12.9206 40.1605 13.5627 40.2992 14.3782C40.4379 15.1933 40.5073 16.2429 40.5073 17.5264V35.7411Z" fill="#A2B8DF"/>
<path fill-rule="evenodd" clip-rule="evenodd" d="M19.7241 28.456C20.5912 26.4437 21.3114 24.7958 21.8837 23.512C22.456 22.2282 22.9246 21.1529 23.2888 20.2854C23.6531 19.4182 23.9566 18.6894 24.1994 18.0997C24.4425 17.51 24.6854 16.9286 24.9282 16.3563C25.171 15.784 25.4311 15.1506 25.7087 14.4568C25.9861 13.7627 26.3594 12.8609 26.8277 11.7506L27.0581 11.2042H29.4692L18.7351 36.2623H17.7982L5.72449 7.48332C5.3083 6.51169 4.91802 5.68789 4.55382 5.01114C4.18962 4.33473 3.78166 3.78805 3.33073 3.37178C2.87979 2.95559 2.39419 2.64338 1.8735 2.43489C1.35316 2.2271 0.728484 2.08836 0 2.0187V0.978008C0.138816 0.978008 0.407609 0.960681 0.806555 0.92602C1.20576 0.891273 1.52663 0.873596 1.76943 0.873596C2.39419 0.873596 3.10526 0.943346 3.90307 1.08208C4.70122 1.22081 5.50769 1.51569 6.32325 1.96663C7.13839 2.41756 7.93654 3.07699 8.71701 3.94446C9.49749 4.81167 10.2002 5.99143 10.8246 7.48332L19.7241 28.456Z" fill="#A2B8DF"/>
<path fill-rule="evenodd" clip-rule="evenodd" d="M35.823 0.130859C38.5554 0.130859 40.7704 2.37422 40.7704 5.14222C40.7704 7.90987 38.5554 10.1532 35.823 10.1532C33.0907 10.1532 30.876 7.90987 30.876 5.14222C30.876 2.37422 33.0907 0.130859 35.823 0.130859Z" fill="#A2B8DF"/>
<path d="M112.11 45.9253C111.96 46.022 111.863 46.0972 111.809 46.151C110.616 47.4087 109.659 48.8597 108.928 50.5044C108.746 50.8805 108.617 51.2675 108.531 51.6438C108.434 52.02 108.412 52.4284 108.466 52.8584C108.52 53.4926 108.735 53.9441 109.1 54.2236C109.466 54.503 109.96 54.5676 110.594 54.417C111.024 54.288 111.433 54.1268 111.809 53.9226C112.185 53.7184 112.572 53.4926 112.949 53.2346C113.905 52.6005 114.797 51.9017 115.604 51.1171C116.41 50.3324 117.194 49.5154 117.947 48.6555C118.13 48.4513 118.302 48.2256 118.484 47.9999C118.656 47.7742 118.828 47.5698 119.011 47.3656C119.215 47.1613 119.366 47.0217 119.473 46.9464C119.774 46.7637 120.064 46.7959 120.344 47.0217C120.645 47.2689 120.699 47.5592 120.494 47.8923C120.441 47.9891 120.387 48.0966 120.312 48.1933C120.236 48.29 120.15 48.3868 120.075 48.462C119.516 49.0425 118.968 49.6122 118.431 50.1819C117.882 50.7516 117.334 51.332 116.775 51.9125C116.098 52.5896 115.367 53.2131 114.604 53.7829C113.83 54.3526 113.024 54.8793 112.185 55.363C111.25 55.8682 110.294 56.0831 109.305 56.0079C108.047 55.9327 107.144 55.3093 106.617 54.1483C106.284 53.4388 106.112 52.7187 106.101 51.9984C106.091 51.2783 106.198 50.5581 106.424 49.8271C106.983 48.2362 107.757 46.8066 108.735 45.5383C109.068 45.1082 109.412 44.6998 109.767 44.3237C110.121 43.9474 110.466 43.5819 110.82 43.2272C111.132 42.9262 111.487 42.679 111.884 42.4748C112.218 42.292 112.54 42.2061 112.873 42.2168C113.206 42.2276 113.518 42.3566 113.819 42.5823C114.12 42.808 114.314 43.0874 114.389 43.3991C114.464 43.7109 114.475 44.0549 114.421 44.4096C114.324 45.0116 114.045 45.5813 113.594 46.108C113.239 46.5165 112.83 46.5272 112.379 46.151C112.325 46.0972 112.282 46.0649 112.25 46.0328C112.207 46.0112 112.164 45.979 112.11 45.9253ZM120.376 49.5584C120.86 49.107 121.322 48.6447 121.784 48.1718C122.236 47.7096 122.698 47.2474 123.182 46.7959C123.515 46.4842 123.837 46.194 124.171 45.9145C124.504 45.6458 124.837 45.3662 125.192 45.0868C125.267 45.0331 125.353 44.9793 125.428 44.9149C125.503 44.8503 125.589 44.7966 125.686 44.7428C126.041 44.5386 126.385 44.517 126.718 44.6676C127.041 44.8181 127.266 45.0975 127.395 45.506C127.471 45.8607 127.471 46.2155 127.395 46.5702C127.342 46.8712 127.288 47.1828 127.223 47.4946C127.159 47.8063 127.094 48.118 127.019 48.419C126.89 48.9242 126.901 49.4833 127.051 50.0959C127.148 50.4506 127.385 50.6118 127.739 50.5904C128.599 50.5151 129.395 50.1711 130.126 49.5584C130.523 49.2038 130.921 48.8597 131.297 48.5158C131.673 48.1826 132.061 47.8279 132.437 47.4731C132.566 47.3549 132.705 47.2366 132.845 47.1183C132.985 47.0001 133.125 46.9034 133.275 46.8282C133.544 46.6777 133.802 46.7314 134.028 46.9786C134.253 47.2366 134.275 47.5054 134.071 47.7741C133.995 47.9031 133.909 48.0105 133.823 48.0966C133.726 48.1933 133.63 48.29 133.533 48.3868C133.028 48.7845 132.533 49.1929 132.039 49.5907C131.544 49.9992 131.05 50.3968 130.545 50.7731C130.265 50.9773 129.986 51.16 129.696 51.3213C129.405 51.4825 129.104 51.6438 128.793 51.7942C128.588 51.9017 128.384 51.977 128.159 52.0092C127.933 52.0414 127.707 52.0738 127.503 52.106C126.976 52.1597 126.514 52.0629 126.127 51.8372C125.729 51.6115 125.439 51.246 125.235 50.7408C125.106 50.4291 125.009 50.1174 124.934 49.7842C124.858 49.4617 124.772 49.1392 124.697 48.806C124.676 48.6233 124.665 48.4513 124.665 48.29C124.665 48.1288 124.654 47.9461 124.622 47.7418C124.525 47.7956 124.418 47.8386 124.321 47.8708C124.224 47.9138 124.149 47.9568 124.095 48.0105C123.698 48.4083 123.289 48.806 122.891 49.1822C122.483 49.5584 122.096 49.9669 121.741 50.3968C121.064 51.203 120.408 52.0414 119.774 52.9014C119.14 53.7613 118.56 54.6321 118.022 55.5134C117.872 55.793 117.71 56.0293 117.538 56.2337C117.227 56.5454 116.904 56.6206 116.549 56.4594C116.173 56.3089 115.98 56.0293 115.98 55.6317C115.98 55.3522 116.023 55.0727 116.098 54.7933C116.528 53.2024 116.99 51.633 117.474 50.0851C117.968 48.548 118.57 47.0217 119.28 45.506C119.484 45.0761 119.731 44.6353 120.032 44.1731C120.193 43.9474 120.43 43.7539 120.763 43.5712C121.032 43.4421 121.301 43.4529 121.569 43.6034C121.838 43.7646 121.988 43.9903 122.042 44.2913C122.096 44.4956 122.107 44.6998 122.075 44.9149C122.031 45.1298 121.967 45.3556 121.892 45.5813C121.687 46.0328 121.494 46.4842 121.311 46.9356C121.118 47.3979 120.924 47.8493 120.72 48.3116C120.645 48.5158 120.57 48.7092 120.494 48.9135C120.419 49.1178 120.344 49.322 120.269 49.5263C120.29 49.5263 120.312 49.5263 120.322 49.5369C120.333 49.5477 120.355 49.5584 120.376 49.5584ZM138.08 51.0418C137.908 51.246 137.757 51.4073 137.628 51.547C137.499 51.6867 137.37 51.8265 137.252 51.9555C136.822 52.3532 136.392 52.7617 135.962 53.1809C135.532 53.6001 135.092 53.9979 134.629 54.374C134.425 54.5568 134.21 54.6965 133.985 54.8148C133.759 54.933 133.533 55.019 133.307 55.0942C132.824 55.2555 132.394 55.2339 131.996 55.0405C131.598 54.8578 131.308 54.5461 131.104 54.116C131.007 53.9118 130.921 53.6861 130.856 53.4388C130.792 53.2024 130.76 52.9767 130.76 52.7509C130.706 51.9448 130.76 51.1923 130.91 50.5044C131.093 49.5907 131.372 48.7308 131.749 47.9245C132.125 47.1183 132.587 46.3552 133.114 45.6135C133.748 44.7858 134.479 44.1087 135.317 43.6034C135.952 43.1734 136.618 42.9585 137.327 42.9585C138.51 43.0122 139.284 43.6034 139.639 44.7106C139.821 45.3448 139.854 45.9683 139.746 46.6025C139.692 46.7852 139.671 46.9464 139.66 47.0969C139.649 47.2474 139.617 47.4087 139.563 47.5914C139.993 47.8708 140.273 48.2041 140.402 48.591C140.52 48.9887 140.595 49.4079 140.627 49.8702C140.649 50.3968 140.724 50.9559 140.853 51.5363C140.928 51.9125 141.165 52.0629 141.573 51.9878C141.778 51.934 141.971 51.891 142.165 51.8372C142.347 51.7835 142.53 51.6975 142.713 51.5685C143.014 51.3643 143.315 51.1492 143.626 50.9235C143.927 50.6978 144.207 50.4506 144.454 50.1711C144.787 49.8594 145.078 49.5369 145.325 49.1822C145.572 48.8275 145.841 48.4943 146.12 48.1611C146.325 47.9353 146.529 47.7095 146.744 47.4946C146.959 47.2796 147.174 47.0753 147.378 46.8712C147.432 46.8174 147.518 46.7959 147.647 46.7959C147.765 46.7959 147.851 46.8174 147.905 46.8712C147.98 46.925 148.044 47.0001 148.098 47.0969C148.152 47.1937 148.163 47.2904 148.13 47.3656C148.109 47.8493 147.905 48.3116 147.528 48.763C147.023 49.4187 146.486 50.0637 145.916 50.6978C145.346 51.332 144.712 51.9017 144.035 52.4069C143.755 52.6326 143.455 52.8476 143.132 53.0519C142.799 53.2561 142.455 53.4174 142.1 53.5463C141.369 53.8473 140.713 53.8796 140.133 53.6538C139.553 53.4281 139.069 52.9659 138.693 52.2565C138.596 52.0738 138.499 51.9017 138.413 51.7191C138.316 51.547 138.209 51.3213 138.08 51.0418ZM137.209 45.6565C136.5 46.0112 135.93 46.4519 135.5 46.9786C135.07 47.5054 134.683 48.075 134.329 48.6877C133.974 49.3435 133.673 50.0314 133.404 50.7301C133.135 51.4396 133.039 52.192 133.114 52.9767C133.318 53.0304 133.49 52.9981 133.63 52.9014C133.769 52.8046 133.899 52.708 134.028 52.6326C135.565 51.3966 136.855 49.9777 137.897 48.3868C137.768 48.1826 137.693 47.9675 137.682 47.7418C137.671 47.5161 137.661 47.2796 137.661 47.0539C137.661 46.8282 137.628 46.6025 137.575 46.3552C137.51 46.1187 137.392 45.8822 137.209 45.6565ZM146.916 51.7942C147.045 51.7727 147.152 51.7621 147.238 51.7727C147.324 51.7835 147.41 51.7727 147.485 51.7191C148.775 51.289 150.054 50.8269 151.323 50.3324C152.58 49.8487 153.795 49.2252 154.956 48.462C155.236 48.2792 155.494 48.1073 155.741 47.9245C155.977 47.7525 156.235 47.5698 156.515 47.3656C156.633 47.2689 156.751 47.1721 156.848 47.0754C156.945 46.9894 157.063 46.925 157.192 46.8712C157.547 46.7207 157.858 46.7959 158.138 47.0969C158.45 47.3979 158.493 47.7311 158.288 48.0858C158.17 48.2041 158.041 48.333 157.912 48.4728C157.783 48.6125 157.643 48.7308 157.493 48.806C156.536 49.3542 155.58 49.8917 154.634 50.4076C153.688 50.9343 152.699 51.4073 151.656 51.8372C151.226 52.02 150.796 52.1812 150.366 52.3317C149.936 52.4822 149.506 52.6542 149.076 52.8584L148.399 53.2024C148.399 53.2561 148.388 53.2884 148.378 53.3099C148.367 53.3421 148.356 53.3636 148.356 53.3959C148.657 54.1268 148.797 54.8684 148.775 55.6317C148.743 56.3948 148.657 57.1366 148.507 57.8675C148.324 58.7274 148.141 59.5766 147.958 60.4151C147.776 61.2427 147.561 62.0705 147.335 62.8766C146.755 64.9941 146.024 67.0366 145.153 68.982C144.282 70.9277 143.261 72.8303 142.1 74.7007C141.821 75.1843 141.509 75.6359 141.154 76.0658C141.025 76.1947 140.896 76.3237 140.767 76.4528C140.649 76.571 140.509 76.6892 140.359 76.7859C139.929 77.0655 139.51 77.1407 139.101 77.0009C138.703 76.8612 138.424 76.5388 138.273 76.0335C138.091 75.4209 138.048 74.7543 138.123 74.0234C138.22 73.0346 138.349 72.0564 138.51 71.0997C138.671 70.143 138.865 69.1756 139.069 68.2189C139.52 65.9938 140.09 63.8332 140.767 61.7156C141.455 59.5981 142.175 57.4806 142.939 55.363C142.992 55.2339 143.035 55.105 143.089 54.9652C143.143 54.8255 143.186 54.6857 143.239 54.5245C143.164 54.4278 143.078 54.3203 142.982 54.2236C142.896 54.1268 142.831 54.0086 142.777 53.8796C142.573 53.5248 142.53 53.1917 142.627 52.8584C142.724 52.5252 142.96 52.2671 143.315 52.063C143.465 52.0092 143.616 51.9663 143.766 51.9125C143.917 51.8588 144.078 51.8157 144.261 51.7621C144.314 51.6115 144.368 51.461 144.433 51.3213C144.497 51.1816 144.551 51.0418 144.605 50.8913C145.637 48.2578 146.744 45.6887 147.926 43.1734C149.098 40.6582 150.366 38.1644 151.731 35.6814C152.065 35.1009 152.419 34.5311 152.817 33.9722C153.204 33.424 153.591 32.8543 153.967 32.2738C154.193 31.9622 154.505 31.6505 154.881 31.3172C155.085 31.1667 155.321 31.027 155.601 30.9087C156.031 30.7475 156.396 30.7905 156.697 31.0162C156.998 31.242 157.138 31.5859 157.117 32.0374C157.084 32.4136 156.988 32.8328 156.816 33.295C156.536 34.2301 156.214 35.1331 155.848 36.0145C155.483 36.9067 155.085 37.7774 154.655 38.6373C154.021 39.9057 153.354 41.1311 152.656 42.3136C151.957 43.5067 151.172 44.6676 150.291 45.8071C150.087 46.0328 149.893 46.2585 149.71 46.4735C149.517 46.6884 149.28 46.8604 149.001 46.9786C148.818 47.0539 148.679 47.1937 148.582 47.3979C148.302 48.0535 148.023 48.72 147.754 49.3865C147.475 50.0637 147.195 50.7301 146.916 51.3858C146.883 51.4396 146.883 51.4933 146.894 51.547C146.905 51.6115 146.916 51.6975 146.916 51.7942ZM151.086 41.5611C151.237 41.6149 151.355 41.5934 151.452 41.5181C151.538 41.4428 151.602 41.3461 151.656 41.2171C152.108 40.454 152.559 39.6907 153 38.9061C153.44 38.1214 153.827 37.3152 154.161 36.4768C154.214 36.4015 154.247 36.3263 154.257 36.2295C154.268 36.1435 154.29 36.0468 154.343 35.9501C154.139 36.0683 153.989 36.2081 153.892 36.3585C153.795 36.5198 153.688 36.681 153.591 36.8529C153.236 37.5087 152.881 38.1859 152.548 38.8631C152.204 39.551 151.86 40.239 151.506 40.9161C151.452 41.0452 151.387 41.1633 151.301 41.2601C151.205 41.3569 151.14 41.4644 151.086 41.5611V41.7115V41.5611ZM140.165 74.1309C140.219 74.1632 140.251 74.1739 140.273 74.1739C140.305 74.1739 140.337 74.1846 140.391 74.2062C140.445 74.1309 140.498 74.0664 140.574 73.9912C140.649 73.9159 140.713 73.83 140.767 73.7547C141.047 73.3247 141.315 72.8948 141.563 72.4541C141.821 72.0134 142.089 71.5619 142.369 71.0997C143.551 69.0036 144.476 66.843 145.142 64.618C145.819 62.3928 146.282 60.0926 146.539 57.717C146.615 57.0398 146.561 56.4056 146.389 55.8144C146.357 55.6962 146.325 55.578 146.271 55.4813C146.217 55.3845 146.174 55.2769 146.12 55.1695C146.045 55.0512 145.916 54.9868 145.744 54.9868C145.69 54.9545 145.637 54.9652 145.583 55.019C145.529 55.0727 145.497 55.1158 145.475 55.1695C145.346 55.4489 145.228 55.7392 145.131 56.0293C145.035 56.3197 144.927 56.5991 144.83 56.8785C143.917 59.3616 143.089 61.8447 142.347 64.3493C141.606 66.8538 140.993 69.4013 140.509 72.0134C140.455 72.3681 140.402 72.7228 140.337 73.0775C140.273 73.4322 140.219 73.7762 140.165 74.1309ZM159.879 37.3474C159.331 37.3797 158.815 37.3905 158.353 37.4011C157.88 37.4119 157.418 37.4442 156.966 37.4979C156.504 37.5517 156.042 37.5947 155.58 37.6161C155.117 37.6485 154.655 37.6806 154.193 37.7344C154.042 37.7344 153.881 37.7344 153.72 37.7344C153.559 37.7344 153.397 37.7236 153.247 37.6915C152.946 37.6377 152.71 37.4979 152.527 37.2507C152.344 37.0142 152.258 36.7563 152.258 36.4768C152.258 36.2295 152.333 35.9931 152.484 35.7781C152.645 35.5631 152.86 35.4018 153.129 35.3051C153.44 35.2299 153.752 35.1869 154.085 35.1869C155.063 35.1331 156.042 35.0902 157.02 35.0579C157.998 35.0256 158.976 34.9826 159.954 34.9289C160.159 34.9289 160.384 34.9289 160.61 34.9289C160.836 34.9289 161.072 34.9181 161.319 34.8859C161.449 34.6817 161.567 34.4989 161.685 34.3377C161.803 34.1764 161.911 33.9937 162.007 33.7895C162.556 32.8543 163.136 31.9406 163.749 31.0484C164.362 30.1671 165.006 29.3071 165.684 28.4794C165.813 28.2752 165.952 28.1032 166.103 27.9419C166.253 27.7915 166.404 27.6302 166.554 27.4582C166.78 27.2325 166.995 27.0605 167.199 26.9638C167.382 26.867 167.554 26.8025 167.737 26.7918C167.909 26.781 168.07 26.8348 168.22 26.9638C168.65 27.211 168.801 27.555 168.683 27.9849C168.586 28.4687 168.403 28.9954 168.145 29.5759C167.79 30.3068 167.436 31.0376 167.07 31.7686C166.705 32.5103 166.339 33.2413 165.985 33.9722C165.931 34.1012 165.877 34.2301 165.823 34.3484C165.759 34.4775 165.705 34.6494 165.651 34.8536C165.856 34.8536 166.017 34.8644 166.146 34.8859C166.264 34.9181 166.393 34.9181 166.522 34.8859C167.962 34.8859 169.381 34.8752 170.79 34.8429C172.187 34.8214 173.606 34.8106 175.046 34.8106C176.648 34.7784 178.228 34.7568 179.797 34.7462C181.356 34.7354 182.936 34.7462 184.527 34.7676C184.957 34.7676 185.398 34.8106 185.838 34.8859C186.279 34.9611 186.72 35.0256 187.15 35.0793C187.375 35.1331 187.601 35.2084 187.827 35.3051C187.956 35.3589 188.01 35.4771 187.999 35.6598C187.988 35.8533 187.913 35.9715 187.795 36.0253C187.59 36.1221 187.408 36.1758 187.225 36.1758C186.591 36.2081 185.967 36.2188 185.333 36.2295C184.699 36.2402 184.054 36.251 183.398 36.251C182.506 36.2832 181.614 36.294 180.7 36.294C179.786 36.294 178.894 36.3155 178.013 36.3693C176.164 36.4445 174.326 36.5306 172.499 36.6273C170.66 36.7239 168.822 36.8315 166.974 36.939C166.544 36.9605 166.114 36.982 165.673 37.0035C165.232 37.0356 164.792 37.068 164.362 37.1218C164.007 37.7559 163.652 38.3686 163.319 38.9598C162.975 39.551 162.642 40.1422 162.308 40.7227C161.975 41.2816 161.653 41.8298 161.341 42.378C161.029 42.9262 160.718 43.4852 160.417 44.0656C160.288 44.2699 160.18 44.4634 160.094 44.6462C159.997 44.8395 159.879 45.0116 159.729 45.162C159.374 45.5383 159.116 45.9468 158.955 46.3874C158.794 46.8282 158.643 47.2796 158.514 47.7418C158.342 48.3546 158.181 48.9458 158.03 49.5369C157.869 50.1281 157.729 50.7301 157.611 51.3428C157.536 51.7727 157.504 52.192 157.514 52.5896C157.525 52.9981 157.6 53.4174 157.719 53.8473C157.848 54.2021 158.084 54.3417 158.439 54.2666C158.847 54.2128 159.213 54.1053 159.546 53.9226C159.868 53.7399 160.18 53.5463 160.492 53.3206C161.524 52.5789 162.48 51.7621 163.351 50.8699C164.222 49.9777 165.071 49.021 165.877 48.0105C165.995 47.8493 166.135 47.6881 166.275 47.5054C166.415 47.3334 166.554 47.1721 166.705 47.0217C166.963 46.7422 167.221 46.6992 167.468 46.9034C167.715 47.1291 167.79 47.3764 167.694 47.6236C167.619 47.8279 167.511 48.0429 167.393 48.2686C165.447 50.7516 163.287 52.9874 160.911 54.9868C160.503 55.32 160.073 55.5887 159.621 55.8036C159.159 56.0187 158.686 56.1476 158.181 56.2014C157.267 56.3518 156.493 56.0293 155.859 55.2447C155.633 54.9438 155.472 54.6105 155.354 54.2451C155.236 53.8796 155.16 53.5034 155.106 53.1272C155.031 52.4177 155.021 51.7191 155.096 51.0418C155.171 50.3646 155.289 49.6659 155.45 48.9565C155.676 47.9461 155.966 46.9571 156.321 45.979C156.676 45.0008 157.041 44.0226 157.418 43.0445C157.751 42.2382 158.095 41.4321 158.45 40.6259C158.804 39.8305 159.148 39.0243 159.503 38.2182C159.557 38.0999 159.6 37.9816 159.653 37.8634C159.707 37.7452 159.782 37.5731 159.879 37.3474ZM169.328 41.4858C169.833 41.4321 170.22 41.5826 170.499 41.9373C170.779 42.292 170.854 42.7113 170.725 43.1949C170.671 43.3132 170.618 43.4421 170.553 43.5712C170.489 43.7002 170.424 43.8292 170.349 43.9474C170.123 44.3021 169.908 44.6676 169.704 45.0331C169.5 45.3986 169.274 45.7533 169.016 46.108C168.715 46.5165 168.661 46.9571 168.865 47.4408C168.941 47.6451 169.027 47.8279 169.113 47.9891C169.199 48.1503 169.285 48.333 169.36 48.5373C169.715 49.2682 169.962 50.0207 170.102 50.8054C170.241 51.5901 170.284 52.3963 170.231 53.2024C170.231 53.7613 170.091 54.288 169.811 54.7933C169.457 55.4705 168.973 55.9219 168.339 56.1261C167.683 56.3518 167.038 56.4379 166.404 56.3842C165.77 56.3304 165.178 56.0617 164.62 55.5564C164.372 55.3307 164.114 55.0942 163.856 54.847C163.609 54.6105 163.383 54.3418 163.179 54.0409C162.824 53.4497 162.642 52.9337 162.631 52.4715C162.62 52.02 162.631 51.7191 162.685 51.5685C162.814 51.1386 163.007 50.7731 163.276 50.4829C163.545 50.1926 163.835 50.1067 164.168 50.2034C164.286 50.2571 164.372 50.3754 164.405 50.5581C164.448 50.7516 164.458 50.9666 164.448 51.1923C164.437 51.418 164.415 51.6438 164.383 51.8695C164.362 52.0952 164.372 52.278 164.426 52.4069C164.652 52.8369 164.942 53.1809 165.275 53.4281C165.619 53.6754 165.974 53.8903 166.329 54.073C166.834 54.2988 167.242 54.288 167.576 54.0193C167.909 53.7505 168.048 53.3529 167.995 52.8262C167.973 52.7724 167.962 52.6757 167.962 52.5359C167.962 52.3963 167.952 52.3102 167.92 52.2565C167.823 51.8802 167.737 51.5363 167.662 51.246C167.586 50.9559 167.468 50.6333 167.318 50.2787C167.156 49.9239 167.017 49.6014 166.877 49.3112C166.737 49.021 166.619 48.72 166.501 48.4083C166.382 48.0966 166.275 47.7418 166.157 47.3656C166.038 46.9894 165.942 46.5272 165.866 46.0004C165.748 45.0868 165.909 44.3021 166.372 43.6249C166.823 42.9585 167.404 42.3673 168.113 41.8621C168.285 41.7438 168.478 41.647 168.693 41.5934C168.908 41.5396 169.123 41.5074 169.328 41.4858Z" fill="#A2B8DF"/>
</svg>
