<svg width="28" height="28" viewBox="0 0 28 28" fill="none" xmlns="http://www.w3.org/2000/svg">
<path fill-rule="evenodd" clip-rule="evenodd" d="M14 22.2303C18.5455 22.2303 22.2303 18.5455 22.2303 14C22.2303 9.45453 18.5455 5.7697 14 5.7697C9.45453 5.7697 5.7697 9.45453 5.7697 14C5.7697 15.6171 6.23605 17.1252 7.04159 18.3973L6.17395 21.9346L9.69857 21.0182C10.9503 21.787 12.4234 22.2303 14 22.2303ZM14 24C19.5228 24 24 19.5228 24 14C24 8.47715 19.5228 4 14 4C8.47715 4 4 8.47715 4 14C4 15.7651 4.45734 17.4235 5.25999 18.863L4 23.9998L9.04509 22.6881C10.5057 23.5229 12.1971 24 14 24Z" fill="#11D376"/>
<path d="M12.1712 11.3911L11.519 9.76066C11.4104 9.54327 11.3017 9.43457 10.9756 9.43457C9.5626 9.43457 8.83209 11.1737 9.01906 11.8259C9.67134 14.7607 13.1496 18.4563 16.8451 18.6737C17.606 18.7824 18.5862 18.2568 19.019 17.152C19.112 16.8247 19.1277 16.4998 18.8016 16.2824L17.0625 15.4128C16.7364 15.3041 16.519 15.4128 16.3016 15.6302L15.7583 16.3911C15.5409 16.7172 15.2521 16.6189 14.9973 16.4998C13.4789 15.643 12.7642 15.0264 11.7364 13.6737C11.5713 13.4563 11.519 13.1302 11.7364 12.9128L12.0625 12.5867C12.3886 12.2607 12.3427 11.8444 12.1712 11.3911Z" fill="#11D376"/>
</svg>
