<svg width="45" height="45" viewBox="0 0 45 45" fill="none" xmlns="http://www.w3.org/2000/svg">
<path d="M38.7134 16.8615L44.3114 11.2635C44.4914 11.088 44.5724 10.8405 44.5454 10.5975C44.5094 10.3455 44.3654 10.1295 44.1539 10.0035L29.0564 1.2825C28.7459 1.1025 28.3499 1.1565 28.0979 1.413L22.4999 7.011L16.9019 1.4175C16.6454 1.161 16.2539 1.107 15.9389 1.287L0.845929 10.008C0.625429 10.134 0.485929 10.35 0.454429 10.602C0.422929 10.8405 0.499429 11.0925 0.674929 11.268L6.27293 16.866L0.679429 22.4685C0.503929 22.644 0.422929 22.8915 0.458929 23.1345C0.485929 23.3775 0.629929 23.598 0.850429 23.7195L6.61043 27.0495V34.3035C6.61043 34.5915 6.76343 34.8525 7.00643 34.9965L22.1039 43.722C22.2254 43.7985 22.3649 43.8255 22.4999 43.8255C22.6349 43.8255 22.7744 43.794 22.8959 43.722L37.9889 34.9965C38.2319 34.8525 38.3849 34.5915 38.3849 34.3035V27.0495L44.1494 23.7195C44.3609 23.5935 44.5049 23.3775 44.5409 23.1345C44.5724 22.887 44.4869 22.644 44.3069 22.4685L38.7134 16.8615ZM35.9954 16.7625L22.4999 24.561L8.99993 16.7625L19.1204 10.9125L22.4999 8.96399L34.7084 16.011L35.9954 16.7625ZM28.7909 2.871L42.4529 10.773L37.4579 15.768L36.6389 15.2955L23.7914 7.8705L28.7909 2.871ZM16.2089 2.871L21.2084 7.8705L7.53743 15.7635L2.53793 10.7685L16.2089 2.871ZM7.53743 17.757L21.1994 25.659L16.2044 30.654L7.79843 25.794C7.79393 25.794 7.79393 25.794 7.79393 25.794L2.53793 22.7565L7.53743 17.757ZM8.19893 27.8685L15.9389 32.337C16.0649 32.4135 16.1999 32.445 16.3349 32.445C16.3529 32.445 16.3619 32.427 16.3799 32.427C16.5644 32.4225 16.7534 32.3595 16.8974 32.2155L21.7034 27.4095V41.5485L8.19893 33.741V27.8685ZM36.7919 33.741L23.2919 41.544V27.4095L28.0889 32.2155C28.2284 32.355 28.4129 32.4135 28.6019 32.427C28.6199 32.427 28.6334 32.445 28.6469 32.445C28.7864 32.445 28.9214 32.4135 29.0429 32.337L36.7829 27.8685V33.741H36.7919ZM28.7864 30.6495L23.7914 25.6545L37.4579 17.7525L42.4529 22.752L28.7864 30.6495Z" fill="#8F7DD1"/>
</svg>
