<svg width="46" height="45" viewBox="0 0 46 45" fill="none" xmlns="http://www.w3.org/2000/svg">
<path d="M45.25 28.5C45.25 33.8523 40.6942 38.25 35 38.25C29.3058 38.25 24.75 33.8523 24.75 28.5C24.75 23.1477 29.3058 18.75 35 18.75C40.6942 18.75 45.25 23.1477 45.25 28.5Z" stroke="#8F7DD1" stroke-width="1.5"/>
<path d="M25.5 1H36L44 9V19.5L25 38.5L20.5 43L2 24.5L6.5 20L25.5 1Z" fill="white"/>
<path d="M6.5 20L25 38.5M25.5 1H36L44 9V19.5L20.5 43L2 24.5L25.5 1Z" stroke="#8F7DD1" stroke-width="1.5"/>
<circle cx="35" cy="10" r="2.25" stroke="#8F7DD1" stroke-width="1.5"/>
<path d="M2 10C6.5 6.16669 19.3 0.800023 34.5 10" stroke="#8F7DD1" stroke-width="1.5"/>
</svg>
