<svg width="43" height="47" viewBox="0 0 43 47" fill="none" xmlns="http://www.w3.org/2000/svg">
<path fill-rule="evenodd" clip-rule="evenodd" d="M24.8414 23.8388C24.5952 23.6796 22.8507 21.3394 22.5976 20.9742C22.8284 20.6172 23.1295 20.2621 23.3709 19.9064C24.6048 18.0875 26.1894 16.0548 27.3765 14.2691C28.548 12.5068 30.9706 9.21228 32.1639 7.5722L33.7715 5.32249C33.9491 5.06078 35.1701 3.2629 35.4064 3.09909C35.5644 3.73101 35.952 4.23087 35.9705 5.37544C36.0051 7.51716 35.0469 9.12038 33.9824 10.717C32.309 13.227 30.3397 15.8805 28.6735 18.3796L27.1751 20.5621C26.908 20.9359 26.6879 21.2545 26.4236 21.651C26.16 22.0463 25.9308 22.3399 25.6673 22.7353C25.4813 23.0144 25.048 23.6823 24.8414 23.8388ZM6.6682 1.01398L6.95969 1.00927C7.34056 1.08872 7.70941 1.48806 8.10128 1.99536L13.4381 8.99166C13.7355 9.37552 13.9974 9.74419 14.3101 10.1459C15.7429 11.9871 18.2872 15.222 19.6882 17.1889L21.0189 18.9416C21.266 19.284 21.2854 19.3515 21.5175 19.4095C21.6029 19.0673 22.9594 17.3169 23.1991 16.9718L32.6041 3.75961C32.8855 3.37279 33.1744 3.00046 33.4468 2.58594C33.7266 2.16013 33.9824 1.82978 34.2866 1.40943C34.6006 0.9756 34.7359 0.560768 35.4531 0.549188C36.1702 0.537609 36.8335 1.92493 37.1263 2.4842C38.6371 5.36969 37.4488 9.02145 35.7898 11.3424C34.1923 13.5773 32.4705 16.2466 30.8826 18.4424C30.3176 19.2238 29.8062 19.9974 29.2743 20.7779L26.0108 25.49C26.3991 26.1961 26.8134 26.8196 27.2464 27.5196C27.7654 28.3587 30.6758 33.2167 30.9733 33.409C31.2644 33.2072 31.3843 33.0045 31.7347 32.7622C33.0074 31.8827 34.0729 31.6888 35.6039 31.6641C36.9812 31.6419 39.163 32.7308 40.1 33.7212C41.9765 35.7047 42.4924 38.8385 41.6131 41.2886C41.3485 42.0262 40.9144 42.8434 40.4311 43.3449C39.8002 43.9996 39.4661 44.3255 38.6003 44.7729C38.0438 45.0606 36.8655 45.5322 36.0917 45.5447C33.3762 45.5886 32.2794 45.1094 30.4504 43.3302C28.2728 41.2119 27.671 34.7733 22.6626 31.1817C22.4868 31.0557 21.778 30.4809 21.6084 30.4836C21.3171 30.4883 19.8419 31.8151 19.5903 32.0764C18.1961 33.5248 17.4841 34.4317 16.6043 36.2787C16.4933 36.5116 16.3664 36.7055 16.2672 36.9039L14.9973 40.0861C14.3996 41.4989 14.2181 42.3358 13.1803 43.6037C11.8031 45.2863 10.1708 45.9633 7.70674 46.0031C6.90791 46.016 5.60403 45.6078 5.06365 45.3378C4.77085 45.1915 4.31832 44.9187 4.02907 44.7088C1.93636 43.1898 1.16044 40.4813 1.59257 37.6611C1.77543 36.4679 2.40789 35.1832 3.23089 34.3165C5.20608 32.2366 7.95292 31.5311 10.7078 32.6289C11.0087 32.7488 11.3566 32.9567 11.607 33.1297C11.8986 33.3311 12.0937 33.5488 12.3429 33.7098C12.6479 33.4787 13.2959 32.1315 13.5568 31.6845L17.0471 25.6348L6.84178 11.8733C4.92243 9.41853 3.80357 5.87693 5.24902 2.79298C5.43988 2.38576 5.64487 2.07772 5.89918 1.69236C6.16961 1.2826 6.42306 1.07429 6.6682 1.01398ZM8.20422 44.1491C6.20856 44.1813 4.3241 43.1268 3.66173 41.2464C2.76162 38.691 3.56045 35.7087 5.96718 34.5437C7.40408 33.8482 9.19223 33.6363 10.5659 34.6517C11.6003 35.4163 12.6529 36.9773 14.3325 34.0792L16.9387 29.5091C17.1586 29.1279 18.0578 27.4714 18.3044 27.2846C18.3882 27.5796 19.6113 29.0507 19.8324 29.3696L18.1204 30.9128C15.5213 33.6279 14.6165 35.9032 13.3367 39.2569C13.0214 40.0832 12.7559 40.8432 12.3331 41.5723C11.5716 42.8854 10.2387 44.1162 8.20422 44.1491ZM30.918 35.4316C32.3577 35.4084 32.3706 33.5622 35.2822 33.5152C37.5907 33.4779 40.0615 35.538 40.1028 38.0962C40.1224 39.3056 40.1978 39.787 39.7493 40.9546C39.362 41.9629 38.4991 42.7897 37.5479 43.2349C35.3192 44.2782 32.8371 43.5964 31.4382 41.5952C30.3885 40.0933 29.3403 36.6018 28.0197 34.4939C27.1904 33.17 27.2522 33.278 26.2937 32.0773L25.3314 31.0163C25.1094 30.7709 24.9877 30.7431 24.7525 30.5421C23.6608 29.6087 23.0939 29.1182 21.7665 28.3547C20.7421 27.7656 20.5877 27.3747 19.7281 26.1715C16.9559 22.291 13.7329 18.1387 10.8849 14.2197C10.5968 13.8232 10.2832 13.4216 9.97365 13.0165C8.29314 10.8176 6.48959 8.72985 6.44028 5.67646C6.42875 4.96193 6.69413 4.02945 6.93351 3.55884C7.10923 3.6833 7.49603 4.25606 7.67676 4.48873L24.2945 26.2799L27.6545 31.6547C28.5649 33.1138 29.5078 35.4544 30.918 35.4316Z" fill="#8F7DD1"/>
<path fill-rule="evenodd" clip-rule="evenodd" d="M36.7761 38.941C36.806 40.7902 34.1449 40.7807 33.5995 38.7298C33.4944 38.3344 33.5879 37.8689 33.8359 37.5649C34.3595 36.923 35.5886 36.8624 36.2642 37.5935C36.5765 37.9313 36.7663 38.3316 36.7761 38.941ZM35.5105 42.2139C37.1634 42.1872 38.6509 40.7264 38.6244 39.087C38.6044 37.8445 38.334 37.0294 37.503 36.2248C36.0918 34.8584 33.9037 34.8913 32.707 36.1258C32.4227 36.4191 32.152 36.6615 31.9723 37.0581C31.1367 38.9029 32.1851 40.9433 33.9782 41.8308C34.4017 42.0403 35.0734 42.2209 35.5105 42.2139Z" fill="#8F7DD1"/>
<path fill-rule="evenodd" clip-rule="evenodd" d="M8.32459 40.719C7.39624 40.734 6.74153 40.6674 6.71865 39.2506C6.70178 38.2058 7.58889 37.4785 8.35999 37.466C8.99436 37.4558 9.86236 37.9647 9.87237 38.5843L9.87946 39.0237C9.88994 39.6725 9.00165 40.7081 8.32459 40.719ZM8.00429 42.658C9.84685 42.6282 11.551 40.9414 11.7261 39.2522C12.0676 35.9562 8.09424 34.464 5.95165 36.6913C4.23285 38.4781 4.54879 41.3683 6.73641 42.3593C6.98487 42.4718 7.70038 42.6629 8.00429 42.658Z" fill="#8F7DD1"/>
<path fill-rule="evenodd" clip-rule="evenodd" d="M21.0103 26.0982C22.5173 26.0739 22.229 24.0568 21.1534 24.0741C20.5624 24.0837 20.1091 24.4465 20.0572 24.9987C20.0063 25.5398 20.4847 26.1067 21.0103 26.0982Z" fill="#8F7DD1"/>
</svg>
