<svg width="45" height="45" viewBox="0 0 45 45" fill="none" xmlns="http://www.w3.org/2000/svg">
<path d="M15.6444 27.3425L14.7935 26.8622L18.4467 23.0488L19.2903 23.5337L15.6444 27.3425ZM23.9795 22.6918L15.3632 31.6674L16.2023 32.1415L24.814 23.1756L23.9795 22.6918ZM43.8837 15.4611L43.9397 15.4673L31.3913 42.0438L0 42.1145L11.2443 18.0541C8.373 17.6043 6.90536 14.2221 6.86123 10.5054C6.90932 6.62927 8.48729 3.0773 11.6132 2.8855L40.2067 2.89116C40.2186 2.89116 40.2271 2.8855 40.2361 2.8855C43.3683 3.0773 44.9412 6.62927 45 10.5083C44.9734 12.3442 44.5955 14.0931 43.8837 15.4611ZM40.2361 4.8895C39.7145 4.87761 39.0468 5.29346 38.4494 6.32375C37.8808 7.33763 37.4796 8.83752 37.4796 10.5117C37.4796 12.183 37.8808 13.6948 38.4494 14.6939C39.0412 15.7327 39.7145 16.1401 40.2361 16.131C40.7549 16.1429 41.4316 15.7327 42.0263 14.6939C42.5977 13.6948 42.9988 12.183 42.9903 10.5117C42.9988 8.83752 42.5977 7.33763 42.0263 6.32375C41.4373 5.29346 40.7549 4.87761 40.2361 4.8895ZM11.6132 16.1248H36.9987C36.0261 14.6877 35.5073 12.6622 35.4779 10.5088C35.5073 8.35264 36.0261 6.32092 37.001 4.8895H11.6132C11.0978 4.87761 10.4223 5.29346 9.83045 6.32375C9.24883 7.33424 8.85618 8.83469 8.85618 10.5088C8.85618 12.1802 9.24883 13.6919 9.83045 14.6911C10.4223 15.7265 11.0978 16.1367 11.6132 16.1248ZM40.4002 18.0977C40.3414 18.105 40.2944 18.1288 40.2361 18.1316H13.3083L3.58762 40.0986L30.2868 40.0455L40.4002 18.0977ZM19.3797 32.5432L20.2267 33.0292L26.0571 26.9674L25.2135 26.4871L19.3797 32.5432Z" fill="#8F7DD1"/>
</svg>
