<svg width="45" height="45" viewBox="0 0 45 45" fill="none" xmlns="http://www.w3.org/2000/svg">
<g clip-path="url(#clip0_230_69)">
<path d="M22.5 45C34.9264 45 45 34.9264 45 22.5C45 10.0736 34.9264 0 22.5 0C10.0736 0 0 10.0736 0 22.5C0 34.9264 10.0736 45 22.5 45Z" fill="white"/>
<path d="M22.4996 44.1509C34.4571 44.1509 44.1505 34.4575 44.1505 22.5C44.1505 10.5425 34.4571 0.84906 22.4996 0.84906C10.5421 0.84906 0.848633 10.5425 0.848633 22.5C0.848633 34.4575 10.5421 44.1509 22.4996 44.1509Z" stroke="#8F7DD1" stroke-width="2"/>
<path d="M19.5282 25.6416L15.9621 22.0756L14.7734 23.2642L19.5282 28.019L29.7168 17.8303L28.5282 16.6416L19.5282 25.6416Z" fill="#8F7DD1"/>
</g>
<defs>
<clipPath id="clip0_230_69">
<rect width="45" height="45" fill="white"/>
</clipPath>
</defs>
</svg>
